<svg width="130" height="130" viewBox="0 0 130 130" fill="none" xmlns="http://www.w3.org/2000/svg">
<circle cx="65" cy="65" r="65" fill="#E7C7C8"/>
<path d="M82.5429 67.8578C78.6319 59.1195 74.8471 53.5418 74.8471 53.5418V53.5352H53.5524C52.2841 56.0185 50.1593 60.0491 47.1049 65.6732C43.3931 72.5125 35 94.5243 35 94.5243C35 94.5243 35.4914 97.4327 42.6361 98.7408C47.3771 99.6106 48.8047 98.867 52.7688 101.018C56.2682 102.917 58.6918 104.69 64.6214 104.69C70.551 104.69 72.045 103.223 76.8723 101.018C80.9825 99.1392 83.2003 100.056 87.9214 99.0861C97.928 97.0343 98.5854 89.7169 98.5854 89.7169C98.5854 89.7169 90.936 86.6027 82.5429 67.8578V67.8578Z" fill="white"/>
<path d="M77.7818 26.8616C77.7951 26.3238 77.4432 25.8457 76.9319 25.6996L74.6344 25.0489C73.9571 24.8563 73.2732 25.2946 73.1603 25.9918L72.0249 32.9971C72.0249 32.9971 68.5056 33.6013 64.6079 36.7753L64.3489 36.7686C60.4512 33.5947 56.8523 32.9971 56.8523 32.9971L55.7102 25.9851C55.6833 25.8224 55.6224 25.6671 55.5316 25.5293C55.4408 25.3916 55.322 25.2744 55.1831 25.1855C55.0441 25.0966 54.8879 25.0379 54.7248 25.0132C54.5617 24.9886 54.3952 24.9984 54.2361 25.0423L51.9386 25.693C51.4207 25.8391 51.0688 26.3172 51.0887 26.855C51.1485 28.9997 51.3543 34.6106 51.9718 40.2945C52.6026 46.1112 53.6857 51.4084 53.4998 53.5C53.4998 53.5 59.1165 54.8695 64.2759 54.9226V54.9292H64.6212V54.9226C69.7739 54.8761 75.1191 54.1391 75.1191 54.1391C74.9332 52.0475 76.2944 46.1112 76.9252 40.2945C77.5162 34.6106 77.722 29.0064 77.7818 26.8616Z" fill="white"/>
<path d="M49.2695 99.4112C51.7463 80.6662 58.2602 64.3184 58.2602 64.3184C58.2602 64.3184 56.0823 83.5879 55.5975 102.559C55.5975 102.559 53.7051 101.363 51.972 100.6C50.239 99.8361 49.2695 99.4112 49.2695 99.4112Z" fill="url(#paint0_linear_323_117)"/>
<path d="M74.4022 102.2C72.7754 92.1667 71.7993 82.18 72.2707 74.0791C72.2707 74.0791 75.956 89.3446 81.2481 99.7961C81.2481 99.7961 79.4486 100.055 77.7289 100.653C76.527 101.071 74.4022 102.2 74.4022 102.2V102.2Z" fill="url(#paint1_linear_323_117)"/>
<defs>
<linearGradient id="paint0_linear_323_117" x1="52.4747" y1="100.673" x2="57.1945" y2="65.4698" gradientUnits="userSpaceOnUse">
<stop offset="0.297" stop-color="#F8F8F8"/>
<stop offset="1" stop-color="#F3F3F3" stop-opacity="0.2"/>
</linearGradient>
<linearGradient id="paint1_linear_323_117" x1="77.9407" y1="102.11" x2="74.1007" y2="74.0791" gradientUnits="userSpaceOnUse">
<stop offset="0.297" stop-color="#F9F9F9"/>
<stop offset="1" stop-color="#CECECE" stop-opacity="0.2"/>
</linearGradient>
</defs>
</svg>
