<svg width="130" height="130" viewBox="0 0 130 130" fill="none" xmlns="http://www.w3.org/2000/svg">
<circle cx="65" cy="65" r="65" fill="#AA7474"/>
<path d="M94.7388 99.9872C97.0541 101.108 98.8549 102.575 100.141 104.386C101.427 106.197 102.328 108.094 102.842 110.078C103.357 112.061 103.7 113.916 103.871 115.64C104.043 117.365 104.043 118.702 103.871 119.651C103.7 120.599 103.357 121.289 102.842 121.721C101.642 122.756 100.184 123.661 98.469 124.437C96.754 125.213 94.8674 125.903 92.8094 126.507C90.7513 127.111 88.6504 127.585 86.5066 127.93L80.2038 128.965C75.4017 129.569 70.3423 129.914 65.0257 130C59.6233 129.914 54.5211 129.569 49.719 128.965C47.6609 128.706 45.56 128.361 43.4162 127.93C41.2724 127.499 39.2144 127.025 37.2421 126.507C35.2698 125.99 33.3832 125.3 31.5825 124.437C29.7817 123.575 28.281 122.669 27.0805 121.721C26.566 121.289 26.2444 120.621 26.1158 119.715C25.9871 118.81 25.9657 117.452 26.0515 115.64C26.1372 113.829 26.4802 111.975 27.0805 110.078C27.6807 108.18 28.5811 106.283 29.7817 104.386C30.9822 102.488 32.783 101.022 35.184 99.9872L43.159 96.365C45.6458 95.2438 47.8753 94.0364 49.8476 92.7427C51.8199 91.4491 53.3206 89.9398 54.3496 88.2149C55.3786 86.4901 55.936 84.4202 56.0218 82.0054V81.2292C54.564 80.0218 53.4921 78.5988 52.8061 76.9601L49.8476 69.9744C48.3041 68.2495 47.1464 66.654 46.3747 65.1879C45.6887 63.9805 45.3456 62.8593 45.3456 61.8244C45.3456 60.7894 46.0745 60.272 47.5323 60.272C47.0178 56.9947 46.8892 54.0624 47.1464 51.4751C47.3179 49.319 47.8325 47.3354 48.69 45.5243C49.5475 43.7132 51.091 42.8076 53.3206 42.8076C53.7493 41.169 54.4782 39.7029 55.5073 38.4092C56.4505 37.288 57.7797 36.2531 59.4947 35.3044C61.2098 34.3558 63.4822 33.9245 66.312 34.0108C68.8846 34.0108 70.9855 34.5714 72.6148 35.6925C74.2441 36.8137 75.659 38.1074 76.8595 39.5735C78.06 41.0396 79.0462 42.4627 79.8179 43.8426C80.5897 45.2225 81.4472 46.2143 82.3905 46.818C82.7335 46.9905 83.0336 47.2061 83.2909 47.4648C83.5481 47.7235 83.5481 48.0685 83.2909 48.4997C82.9479 49.7071 82.6049 51.4751 82.2619 53.8037C81.9189 56.1323 81.9617 58.2884 82.3905 60.272C83.934 60.3582 84.6629 60.8757 84.5772 61.8244C84.4914 62.7731 84.0627 63.8942 83.2909 65.1879C82.4334 66.654 81.2328 68.2495 79.6893 69.9744C79.089 71.5268 78.6174 72.8636 78.2744 73.9847C77.9314 75.1059 77.5455 76.1408 77.1167 77.0895C76.688 78.0382 76.2592 78.7713 75.8305 79.2887C75.4017 79.8062 74.7586 80.453 73.9011 81.2292V82.0054C73.9011 84.5065 74.4584 86.5763 75.5732 88.2149C76.688 89.8536 78.2315 91.3628 80.2038 92.7427C82.1761 94.1226 84.3628 95.33 86.7638 96.365C89.1649 97.3999 91.8232 98.6073 94.7388 99.9872Z" fill="white"/>
</svg>
