<svg width="64" height="80" viewBox="0 0 64 80" fill="none" xmlns="http://www.w3.org/2000/svg">
<path d="M47.5429 42.8578C43.6319 34.1195 39.8471 28.5418 39.8471 28.5418V28.5352H18.5524C17.2841 31.0185 15.1593 35.0491 12.1049 40.6732C8.39305 47.5125 0 69.5243 0 69.5243C0 69.5243 0.491365 72.4327 7.63609 73.7408C12.3771 74.6106 13.8047 73.867 17.7688 76.0183C21.2682 77.9174 23.6918 79.6903 29.6214 79.6903C35.551 79.6903 37.045 78.2228 41.8723 76.0183C45.9825 74.1392 48.2003 75.0555 52.9214 74.0861C62.928 72.0343 63.5854 64.7169 63.5854 64.7169C63.5854 64.7169 55.936 61.6027 47.5429 42.8578Z" fill="white"/>
<path d="M42.7818 1.86164C42.7951 1.32379 42.4432 0.845708 41.9319 0.699627L39.6344 0.0488993C38.9571 -0.143663 38.2732 0.294582 38.1603 0.99179L37.0249 7.99707C37.0249 7.99707 33.5056 8.60132 29.6079 11.7753L29.3489 11.7686C25.4512 8.59468 21.8523 7.99707 21.8523 7.99707L20.7102 0.98515C20.6833 0.822369 20.6224 0.667067 20.5316 0.529314C20.4408 0.391561 20.322 0.274434 20.1831 0.185529C20.0441 0.096625 19.8879 0.0379288 19.7248 0.0132472C19.5617 -0.0114345 19.3952 -0.00155018 19.2361 0.042259L16.9386 0.692986C16.4207 0.839068 16.0688 1.31715 16.0887 1.855C16.1485 3.99974 16.3543 9.61061 16.9718 15.2945C17.6026 21.1112 18.6857 26.4084 18.4998 28.5C18.4998 28.5 24.1165 29.8695 29.2759 29.9226V29.9292H29.6212V29.9226C34.7739 29.8761 40.1191 29.1391 40.1191 29.1391C39.9332 27.0475 41.2944 21.1112 41.9252 15.2945C42.5162 9.61061 42.722 4.00638 42.7818 1.86164Z" fill="white"/>
<path d="M14.2695 74.4112C16.7463 55.6662 23.2602 39.3184 23.2602 39.3184C23.2602 39.3184 21.0823 58.5879 20.5975 77.5586C20.5975 77.5586 18.7051 76.3633 16.972 75.5997C15.239 74.8361 14.2695 74.4112 14.2695 74.4112Z" fill="url(#paint0_linear_323_119)"/>
<path d="M39.4022 77.1998C37.7754 67.1667 36.7993 57.18 37.2707 49.0791C37.2707 49.0791 40.956 64.3446 46.2481 74.7961C46.2481 74.7961 44.4486 75.0551 42.7289 75.6527C41.527 76.071 39.4022 77.1998 39.4022 77.1998Z" fill="url(#paint1_linear_323_119)"/>
<defs>
<linearGradient id="paint0_linear_323_119" x1="17.4747" y1="75.6728" x2="22.1945" y2="40.4698" gradientUnits="userSpaceOnUse">
<stop offset="0.297" stop-color="#F8F8F8"/>
<stop offset="1" stop-color="#F3F3F3" stop-opacity="0.2"/>
</linearGradient>
<linearGradient id="paint1_linear_323_119" x1="42.9407" y1="77.1102" x2="39.1007" y2="49.0791" gradientUnits="userSpaceOnUse">
<stop offset="0.297" stop-color="#F9F9F9"/>
<stop offset="1" stop-color="#CECECE" stop-opacity="0.2"/>
</linearGradient>
</defs>
</svg>
