<svg width="113" height="88" viewBox="0 0 113 88" fill="none" xmlns="http://www.w3.org/2000/svg">
<path d="M34.6667 35.6667L17.3333 11.4L24.2667 1H45.0667L52 11.4L34.6667 35.6667ZM49.8333 21.8L44.6333 29.1667C54.1667 33.0667 60.6667 42.1667 60.6667 53C60.6667 59.8956 57.9274 66.5088 53.0514 71.3848C48.1755 76.2607 41.5623 79 34.6667 79C27.771 79 21.1578 76.2607 16.2819 71.3848C11.4059 66.5088 8.66667 59.8956 8.66667 53C8.66667 42.1667 15.1667 33.0667 24.7 29.1667L19.5 21.8C7.8 27.4333 0 39.1333 0 53C0 62.1942 3.65237 71.0118 10.1536 77.513C16.6549 84.0143 25.4725 87.6667 34.6667 87.6667C43.8608 87.6667 52.6784 84.0143 59.1797 77.513C65.681 71.0118 69.3333 62.1942 69.3333 53C69.3333 39.1333 61.5333 27.4333 49.8333 21.8Z" fill="#E7C7C8"/>
<path fill-rule="evenodd" clip-rule="evenodd" d="M78.5 88C97.5538 88 113 72.5538 113 53.5C113 34.4462 97.5538 19 78.5 19C59.4462 19 44 34.4462 44 53.5C44 72.5538 59.4462 88 78.5 88ZM78.5 79C92.5833 79 104 67.5833 104 53.5C104 39.4167 92.5833 28 78.5 28C64.4167 28 53 39.4167 53 53.5C53 67.5833 64.4167 79 78.5 79Z" fill="#E7C7C8"/>
<path d="M25 1L35 33.5L45.5 1M52.5 11.5L35 1L18 11.5" stroke="white"/>
</svg>
