<svg width="130" height="130" viewBox="0 0 130 130" fill="none" xmlns="http://www.w3.org/2000/svg">
<circle cx="65" cy="65" r="65" fill="#CB9797"/>
<path d="M23.3113 64.0103C23.6058 62.4105 22.7915 60.9786 21.0735 61.1141C18.7432 61.2983 17.1217 66.0474 22.0792 67.6277C26.1435 68.9235 29.1025 65.9239 33.7851 61.2956C44.2476 50.9544 56.881 49.9514 64.5854 60.3908C67.7608 54.6694 80.2779 45.132 99.3904 64.9153C106.411 72.1827 112.685 65.3482 109.248 61.5975C107.684 59.8912 104.629 62.274 106.167 64.0103H105.859C98.686 57.7814 113.67 51.961 116.639 62.5023C119.707 78.369 102.613 80.9483 88.9189 75.1682C62.4521 62.1989 62.1698 65.683 36.5553 76.3748C28.6942 79.53 19.0668 77.7272 15.1806 74.0789C10.5649 69.746 10.8504 59.4493 16.8423 57.3746C22.9578 54.9726 28.1315 60.1149 23.3113 64.0103Z" fill="white"/>
</svg>
